<?xml version="1.0" encoding="UTF-8"?>
<svg id="Capa_1" data-name="Capa 1" xmlns="http://www.w3.org/2000/svg" viewBox="0 0 400.59 397.36">
  <defs>
    <style>
      .cls-1 {
        fill: #30327b;
      }
    </style>
  </defs>
  <path class="cls-1" d="M314.04,223.96c-64.25,4.87-77.85-104.74-112.86-90.28-18.1,10.13-25.47,33.19-38.05,48.41-10.39,14.1-25.16,19.49-40.46,9.73-9.47-8.17-11.82-21.47-16.38-32.65-2.49-6.42-5.81-12.36-11.06-16.82-15.58-14.16-49.07,14.87-57.17,36.45-1.84,5.63-2.96,10-.15,14.49,17.12,23.76,15.02,59.75,40.7,77.16,11.86,7.26,24.03,3.63,35.6-4.79,18.45-13.61,34.41-37.54,46.99-51.94,6.73-8.54,11.83-12.5,16.01-13.01,23.13.83,20.86,78.43,104.24,70.5,63.86-7.61,71.74-29.37,107.73-66.92,2.35-2.7,5.79-7.04,1.14-6.51-1.89.29-3.82.96-5.55,1.7-22.25,11.02-45.25,22.77-70.37,24.47l-.36.02Z"/>
  <path class="cls-1" d="M151.4,252.22c-.18-16.11,19.71-26.86,33.18-17.66,36.38,28.75-28.5,62.71-33.18,17.66Z"/>
</svg>